<svg width="120" height="121" viewBox="0 0 120 121" fill="none" xmlns="http://www.w3.org/2000/svg">
<g clip-path="url(#clip0_19_259)">
<path d="M105 30.5H89.15L80 20.5H50V30.5H75.6L84.75 40.5H105V100.5H25V55.5H15V100.5C15 106 19.5 110.5 25 110.5H105C110.5 110.5 115 106 115 100.5V40.5C115 35 110.5 30.5 105 30.5ZM40 70.5C40 84.3 51.2 95.5 65 95.5C78.8 95.5 90 84.3 90 70.5C90 56.7 78.8 45.5 65 45.5C51.2 45.5 40 56.7 40 70.5ZM65 55.5C73.25 55.5 80 62.25 80 70.5C80 78.75 73.25 85.5 65 85.5C56.75 85.5 50 78.75 50 70.5C50 62.25 56.75 55.5 65 55.5ZM25 30.5H40V20.5H25V5.5H15V20.5H0V30.5H15V45.5H25V30.5Z" fill="#323232"/>
</g>
<defs>
<clipPath id="clip0_19_259">
<rect width="120" height="120" fill="white" transform="translate(0 0.5)"/>
</clipPath>
</defs>
</svg>
