<svg width="125" height="30" viewBox="0 0 125 30" fill="none" xmlns="http://www.w3.org/2000/svg">
<g clip-path="url(#clip0_10_14)">
<path fill-rule="evenodd" clip-rule="evenodd" d="M6.76123 0.103123C4.20966 1.0125 1.41612 3.57187 0.536265 6.7875C-0.585549 10.8562 4.06668 12.5719 4.45162 12.0094C4.89155 11.3531 3.61576 11.1281 3.3518 9.00937C3.02185 6.29062 4.50661 3.23437 6.3763 1.90312C6.72824 1.65 6.70624 1.99687 6.70624 2.63437L6.64025 16.1906C6.64025 19.0969 6.49728 20.0062 6.24432 20.9156C5.99136 21.8344 5.58443 22.4531 5.88138 22.6969C6.23332 22.9594 7.72907 22.3219 8.58693 21.2906C9.56711 20.0162 10.0766 18.5206 10.0497 16.9969C10.1267 15.0656 10.1157 12 10.1267 10.2562C10.1267 8.6625 10.1597 3.96562 10.0937 1.14375C10.0717 0.449997 7.81706 -0.271878 6.76123 0.112497V0.103123ZM97.0893 13.6781C97.0542 14.8943 96.7247 16.0912 96.1214 17.1938C95.1866 18.8062 93.2289 19.3031 92.3931 16.9875C91.9531 15.7312 91.9201 13.6219 92.2501 11.8594C92.58 10.0781 93.5039 8.71875 95.0326 8.84062C96.5504 8.9625 97.2542 10.6219 97.0893 13.6781ZM71.6285 23.0344C71.6065 25.5375 71.1446 27.7313 70.1547 28.3781C68.736 29.2781 66.8553 28.5938 67.2402 26.7656C67.5812 25.1531 69.2199 23.5031 71.6395 21.4781L71.6285 23.0344ZM71.2436 13.6594C71.1792 14.8783 70.8511 16.0765 70.2757 17.1938C69.3409 18.8062 67.3722 19.3031 66.5473 16.9875C65.9974 15.4031 66.1294 13.3594 66.4044 12.0656C66.7673 10.3969 67.6362 8.84062 69.1869 8.84062C70.7047 8.84062 71.4525 10.2469 71.2436 13.6594ZM56.495 13.6406C56.4671 14.8716 56.1414 16.0844 55.5382 17.2031C54.5703 18.7969 52.6456 19.3031 51.7988 16.9875C51.1939 15.3281 51.4028 13.05 51.6558 11.8312C52.0297 10.0031 52.9756 8.71875 54.4383 8.83125C55.9561 8.9625 56.682 10.6125 56.495 13.6406ZM124.079 15.3375C123.716 15.3375 123.54 15.6656 123.408 16.2094C122.924 18.1031 122.418 18.5344 121.758 18.5344C121.032 18.5344 120.372 17.5969 120.196 15.7219C120.064 14.2406 120.086 11.5219 120.262 8.8125C120.295 8.25937 120.108 7.71562 118.36 7.17187C117.612 6.9375 116.512 6.59062 115.973 7.71562C114.884 9.85619 114.115 12.1051 113.686 14.4094C113.686 14.4656 113.598 14.475 113.576 14.3531C113.499 13.5375 113.29 12.0469 113.268 8.925C113.268 8.31562 113.114 7.8 112.322 7.37812C111.805 7.09687 110.254 6.61875 109.682 7.19062C109.209 7.65937 108.648 8.94375 108.065 10.4531L107.252 12.5156L107.263 7.94062C107.263 7.47187 106.889 7.3125 106.768 7.28437C106.122 7.11472 105.459 6.99855 104.788 6.9375C104.26 6.9375 104.128 7.19062 104.128 7.56562C104.128 7.6125 104.04 11.925 104.04 14.9437V15.375C103.743 16.7625 102.786 18.6469 101.742 18.6469C100.697 18.6469 100.202 17.8594 100.202 14.2594C100.202 12.1594 100.279 11.25 100.312 9.73125C100.334 8.85 100.378 8.18437 100.378 8.03437C100.367 7.56562 99.4209 7.33125 98.981 7.2375C98.541 7.15312 98.1451 7.11562 97.8482 7.13437C97.4082 7.15312 97.1113 7.3875 97.1113 7.71562V8.23125C96.6366 7.59131 95.93 7.10086 95.0986 6.83437C93.5149 6.43125 91.8651 6.7875 90.6223 8.26875C89.5496 9.57679 88.9182 11.1105 88.7967 12.7031C88.6207 14.1094 88.6867 15.525 88.9836 16.7344C88.6207 18.0844 87.9278 18.6469 87.1799 18.6469C86.0911 18.6469 85.3102 17.1281 85.3982 14.5219C85.4642 12.7969 85.8601 11.5875 86.3001 9.84375C86.487 9.09375 86.3441 8.71875 85.9591 8.34375C85.6072 7.99687 84.8593 7.81875 83.7705 8.03437C83.0006 8.18437 81.9008 8.35312 80.9109 8.475C80.9109 8.475 80.9659 8.27812 81.0209 7.9125C81.2739 6.00937 78.8433 6.15937 78.0624 6.76875C77.6005 7.13437 77.2926 7.55625 77.1606 8.33437C76.9736 9.55312 78.1504 10.125 78.1504 10.125C77.3946 12.5584 76.1277 14.8549 74.411 16.9031V16.2469C74.4 13.0969 74.444 10.6219 74.466 9.73125C74.488 8.85 74.532 8.20312 74.532 8.04375C74.532 7.70625 74.2901 7.575 73.8061 7.41562C73.3662 7.26562 72.8603 7.17187 72.3324 7.13437C71.6725 7.0875 71.2656 7.3875 71.2766 7.74375V8.23125C70.7997 7.58925 70.0887 7.09849 69.2529 6.83437C67.6692 6.43125 66.0194 6.7875 64.7766 8.26875C63.7423 9.58988 63.1145 11.1116 62.9509 12.6937C62.786 14.1656 62.808 15.4125 63.0499 16.4812C62.797 17.5406 62.0711 18.6375 61.2572 18.6375C60.2124 18.6375 59.6075 17.8594 59.6075 14.2594C59.6075 12.1594 59.6845 11.25 59.7175 9.73125C59.7395 8.85 59.7835 8.18437 59.7835 8.03437C59.7835 7.56562 58.8266 7.33125 58.3867 7.2375C57.9248 7.14375 57.5178 7.11562 57.2209 7.14375C56.8139 7.1625 56.528 7.47187 56.528 7.70625V8.23125C56.0511 7.58925 55.3402 7.09849 54.5043 6.83437C52.9206 6.43125 51.2819 6.79687 50.0281 8.26875C49.2032 9.23437 48.5433 10.3031 48.2024 12.675C48.11 13.3094 48.0659 13.9482 48.0704 14.5875C47.7404 16.2844 46.2997 18.2437 45.1229 18.2437C44.43 18.2437 43.7701 17.1094 43.7701 14.6812C43.7701 11.4469 44.0121 6.84375 44.0451 6.40312L45.8268 6.375C46.5746 6.375 47.2455 6.38437 48.2354 6.3375C48.7303 6.31875 49.2032 4.8 48.6973 4.6125C48.4663 4.52812 46.8276 4.45312 46.1677 4.44375C45.6178 4.43437 44.1 4.34062 44.1 4.34062C44.1 4.34062 44.243 1.28437 44.276 0.965623C44.298 0.684373 43.8911 0.553123 43.6491 0.468748C43.1063 0.282499 42.5424 0.144274 41.9664 0.0562475C41.1305 -0.0843775 40.7566 0.0562474 40.6796 0.656247C40.5696 1.56562 40.5146 4.2375 40.5146 4.2375C39.8988 4.2375 37.7981 4.13437 37.1932 4.13437C36.6213 4.13437 36.0054 6.21562 36.7973 6.24375L40.3167 6.32812L40.2837 12.45V12.8906C39.7008 15.45 37.6771 16.8281 37.6771 16.8281C38.117 15.1406 37.2152 13.875 35.6205 12.7969C35.0266 12.4031 33.8607 11.6531 32.552 10.8281C32.552 10.8281 33.3108 10.1906 33.9817 8.91562C34.4546 8.01562 34.4766 6.98437 33.3108 6.75937C31.3862 6.375 29.7914 7.575 29.3185 8.86875C29.134 9.28755 29.0877 9.74146 29.1846 10.1811C29.2816 10.6208 29.5181 11.0294 29.8684 11.3625L30.0334 11.5406C29.5935 12.2531 28.9996 13.2094 28.4936 13.9594C27.0969 16.0219 26.03 17.6625 25.2272 17.6625C24.5893 17.6625 24.6003 16.0031 24.6003 14.4469C24.6003 13.1062 24.7103 11.0906 24.8092 9.00937C24.8422 8.31562 24.4353 7.92187 23.7534 7.56562C23.2112 7.24589 22.597 7.02562 21.9497 6.91875C21.1798 6.91875 18.9802 7.0125 16.8906 12.1406C16.6376 12.7875 16.1207 13.9594 16.1207 13.9594L16.1647 7.8C16.1647 7.65 16.0767 7.51875 15.8677 7.425C15.2114 7.12757 14.4872 6.95486 13.7451 6.91875C13.3491 6.91875 13.1512 7.07812 13.1512 7.3875L13.0742 17.0437C13.0742 17.775 13.0962 18.6281 13.1842 19.0031C13.2722 19.3781 13.4041 19.6781 13.5801 19.8563C13.7451 20.0438 13.943 20.175 14.262 20.2312C14.5699 20.2875 16.2197 20.4656 16.3077 19.9312C16.4176 19.2844 16.4176 18.5906 17.2865 15.9937C18.6283 11.9531 20.388 9.975 21.2238 9.28125C21.3668 9.15 21.5318 9.15 21.5208 9.34687L21.2788 14.3344C21.0589 19.3687 22.1367 20.2969 23.6654 20.2969C24.8422 20.2969 26.503 19.3031 28.2847 16.7906L31.2542 12.5719L32.9919 13.9406C34.3997 15.0656 34.8616 16.1531 34.5536 17.175C34.3227 17.9531 33.4318 18.7687 31.8701 17.9812C31.4082 17.7469 31.2102 17.5687 30.7593 17.3156C30.5063 17.175 30.1324 17.1281 29.9014 17.2781C29.3185 17.6531 28.9776 18.1406 28.7906 18.7312C28.6036 19.3031 29.2855 19.6125 29.9894 19.875C30.5943 20.1094 31.9031 20.3156 32.7389 20.3438C35.9724 20.4375 38.568 19.0125 40.3717 15.3375C40.7016 18.5063 42.0764 20.3062 44.463 20.3062C46.0577 20.3062 47.6635 18.5438 48.3673 16.8188C48.5653 17.5219 48.8623 18.1312 49.2472 18.6562C51.0949 21.1406 54.6693 20.5969 56.462 18.4875C57.0119 17.8406 57.0999 17.6063 57.0999 17.6063C57.1536 18.316 57.5137 18.9837 58.1108 19.4806C58.7079 19.9774 59.4996 20.2682 60.3334 20.2969C61.5432 20.2969 62.786 19.8094 63.6658 18.1313C63.7648 18.3188 63.8858 18.4875 63.9958 18.6562C65.8435 21.1406 69.4179 20.5969 71.2106 18.4875L71.4305 18.225L71.4855 19.5375L69.8358 20.8219C67.0642 22.9781 64.9526 24.6187 64.7986 26.5312C64.6007 28.9688 66.9213 29.8688 68.681 29.9906C69.5611 30.028 70.437 29.8643 71.2181 29.5165C71.9993 29.1688 72.6573 28.6496 73.1243 28.0125C73.9821 26.9344 74.554 24.6094 74.51 22.3125L74.444 18.975C77.0785 16.3782 79.1023 13.3736 80.405 10.125C80.405 10.125 81.4279 10.1344 82.5167 10.0781C82.8686 10.0594 82.9676 10.1156 82.9016 10.3312C82.8246 10.5937 81.5268 14.8687 82.7147 17.7188C83.5285 19.6687 85.3542 20.2969 86.454 20.2969C87.7188 20.2969 88.9396 19.4812 89.5885 18.2625L89.8415 18.6562C91.6892 21.1406 95.2526 20.5969 97.0563 18.4875C97.4632 18.0187 97.6942 17.6063 97.6942 17.6063C98.0901 19.6688 99.9708 20.3062 101.049 20.3062C102.17 20.3062 103.248 19.9125 104.106 18.1687C104.139 18.9375 104.194 19.5656 104.282 19.7625C104.337 19.8844 104.656 20.0438 104.898 20.1094C105.921 20.4281 106.966 20.2781 107.362 20.2125C107.626 20.1656 107.834 19.9781 107.867 19.5094C107.944 18.2625 107.9 16.1719 108.34 14.625C109.077 12.0094 109.77 10.9969 110.1 10.5C110.287 10.2187 110.496 10.1719 110.507 10.4719C110.518 11.0719 110.551 12.8344 110.837 15.2062C111.057 16.95 111.343 17.9813 111.552 18.3C112.179 19.2375 112.949 19.2844 113.565 19.2844C113.96 19.2844 114.796 19.1906 114.719 18.6C114.686 18.3094 114.741 16.5187 115.489 13.95C115.962 12.2719 116.754 10.7625 117.04 10.2C117.15 10.0031 117.205 10.1625 117.205 10.2C117.139 11.3437 117.007 15.1219 117.557 17.1938C118.305 19.9875 120.471 20.3062 121.23 20.3062C122.847 20.3062 124.167 19.2563 124.607 16.5094C124.717 15.8531 124.552 15.3375 124.079 15.3375Z" fill="black"/>
</g>
<defs>
<clipPath id="clip0_10_14">
<rect width="125" height="30" fill="white"/>
</clipPath>
</defs>
</svg>
